<?xml version="1.0" standalone="no"?>
<!DOCTYPE svg PUBLIC "-//W3C//DTD SVG 1.1//EN" "http://www.w3.org/Graphics/SVG/1.1/DTD/svg11.dtd" >
<svg xmlns="http://www.w3.org/2000/svg">
<metadata>Generated by IcoMoon</metadata>
<defs>
<font id="icomoon" horiz-adv-x="1024">
<font-face units-per-em="1024" ascent="960" descent="-64" />
<missing-glyph horiz-adv-x="1024" />
<glyph unicode="&#x20;" horiz-adv-x="512" d="" />
<glyph unicode="&#xe600;" glyph-name="check-circled" d="M514.688 960c-282.752 0-512-229.248-512-512s229.248-512 512-512 512 229.248 512 512-229.248 512-512 512zM514.688 0c-247.040 0-448 200.96-448 448s200.96 448 448 448 448-200.96 448-448-201.024-448-448-448zM738.944 651.648c-20.672 13.568-48.448 7.744-62.016-12.992l-216.064-330.176-103.296 95.616c-18.176 16.768-46.528 15.68-63.36-2.496s-15.68-46.464 2.496-63.296l142.784-132.096c0.512-0.448 1.152-0.576 1.664-1.024 1.28-1.024 2.048-2.432 3.392-3.392 1.92-1.28 4.096-1.536 6.144-2.432 2.432-1.152 4.8-2.24 7.36-2.944 2.496-0.64 4.928-0.96 7.488-1.152 3.648-0.384 7.168-0.384 10.752 0.128 1.472 0.256 2.88 0.64 4.352 1.024 4.416 1.088 8.512 2.816 12.544 5.248 0.704 0.448 1.28 0.96 1.984 1.408 2.624 1.792 5.44 3.136 7.68 5.568 1.6 1.728 2.304 3.968 3.584 5.888 0.064 0.064 0.192 0.128 0.192 0.192l245.248 374.848c13.568 20.736 7.744 48.512-12.928 62.080z" />
<glyph unicode="&#xe601;" glyph-name="parental" d="M507.728 748.080c-10.16-3.408-18.32-11.984-20.368-23.264l-7.456-43.472c-0.672-1.376-1.008-2.752-1.008-3.792l-45.76-254.672c-2.752-16.784 8.128-32.864 24.768-35.968v0c16.272-2.72 32.224 8.256 35.28 25.008l7.76 43.488c0.352 1.008 0.72 2.384 1.040 3.76l38.24 176.544-0.592-324.784v-341.664c0-17.088 13.888-30.784 30.512-30.784v0c16.944 0 30.528 13.68 30.528 30.784v335.856l93.008 0.336v-336.192c0-17.088 13.568-30.784 30.512-30.784v0c16.608 0 30.496 13.68 30.496 30.784v342.352l-0.080 324.128 37.744-177.936c0-1.376 0.352-2.72 0.656-3.792l7.824-43.424c3.040-16.8 18.976-27.744 35.616-25.040v0.032c16.288 3.072 27.488 19.152 24.4 35.936l-45.44 254.704c-0.352 1.040-0.688 2.384-1.008 3.76l-7.824 43.472c-3.040 16.432-19.008 27.728-35.616 24.64v0h-0.336l-255.12 2.384c-2.688-0.016-5.376-0.688-7.776-2.4v0 0zM646.88 960c45.44 0 82.048-36.976 82.048-82.864 0-45.52-36.608-82.512-82.080-82.512-45.072 0.016-81.744 36.992-81.744 82.512 0.016 45.888 36.656 82.864 81.744 82.864h0.032zM188.384 386.784c-6-2.032-10.832-7.104-12.032-13.792l-4.4-25.696c-0.4-0.832-0.592-1.648-0.592-2.24l-27.088-150.704c-1.616-9.904 4.816-19.408 14.656-21.264v0c9.632-1.616 19.040 4.88 20.848 14.816l4.64 25.696c0.192 0.624 0.4 1.424 0.592 2.24l22.624 104.448-0.352-192.16v-173.12c0-10.128 8.24-18.256 18.096-18.256v0c10 0 23.008 8.128 23.008 18.256v169.68l45.040 0.224v-169.888c0-10.128 13.024-18.256 23.056-18.256v0c9.824 0 18.032 8.128 18.032 18.256v173.536l-0.064 191.728 139.568 69.552-8.304 50.512-121.76-53.552-150.912 1.408c-1.648-0.016-3.232-0.416-4.656-1.424v0 0zM270.672 512.112c26.912 0 48.576-21.872 48.576-48.992 0-26.944-21.664-48.816-48.576-48.816-26.656 0-48.336 21.872-48.336 48.816 0.016 27.136 21.696 48.992 48.336 48.992v0 0z" />
<glyph unicode="&#xe602;" glyph-name="repeater" d="M538.064 690.704l25.152 28.352c31.616-37.040 51.248-80 54.992-126.848 3.856-47.968-9.28-94.592-35.856-136.944l-29.008 24.16c19.040 34.368 28.288 71.52 25.184 109.6-2.976 37.072-17.296 71.408-40.464 101.68v0zM663.152 818.384l33.072 37.2c59.984-59.872 97.856-133.344 104.4-214.816 6.672-83.2-20.176-163.312-71.952-232.992l-38.112 31.776c41.824 59.568 63.216 127.088 57.632 196.976-5.424 68.384-36.128 130.4-85.040 181.856v0zM413.072 586.24h80.304l52.992-648.432h-186.32l53.024 648.432zM453.2 522.416c-36.704 0-66.528 29.776-66.528 66.496 0 36.688 29.808 66.464 66.528 66.464s66.512-29.776 66.512-66.464c0-36.704-29.776-66.496-66.512-66.496v0zM761.056 905.488l48.512 54.512c88.016-87.808 143.536-195.536 153.12-315.008 9.744-121.952-29.632-239.456-105.52-341.584l-55.968 46.576c61.424 87.328 92.768 186.352 84.544 288.832-8.048 100.256-53.008 191.184-124.688 266.672v0zM181.344 818.384l33.104 37.2c59.984-59.872 97.872-133.344 104.368-214.816 6.672-83.2-20.112-163.312-71.904-232.992l-38.16 31.776c41.872 59.568 63.248 127.088 57.664 196.976-5.488 68.384-36.176 130.4-85.072 181.856v0zM64 768.64l33.264 37.44c41.824-48.944 67.696-105.808 72.688-167.728 5.072-63.376-12.336-125.024-47.408-181.040l-38.368 31.952c25.232 45.408 37.376 94.544 33.312 144.88-3.904 48.992-22.8 94.448-53.488 134.496v0z" />
<glyph unicode="&#xe603;" glyph-name="warn-circled" d="M512 960c-282.752 0-512-229.248-512-512s229.248-512 512-512 512 229.248 512 512-229.248 512-512 512zM512 0c-247.040 0-448 200.96-448 448s200.96 448 448 448 448-200.96 448-448-200.96-448-448-448zM512 768c-35.328 0-64-28.672-64-64v-320c0-35.328 28.672-64 64-64s64 28.672 64 64v320c0 35.328-28.672 64-64 64zM448 193.024c0-35.346 28.654-64 64-64s64 28.654 64 64c0 35.346-28.654 64-64 64s-64-28.654-64-64z" />
<glyph unicode="&#xe604;" glyph-name="wired" d="M425.84 640.48h170.336c23.536 0 42.592 19.072 42.592 42.592v170.336c0 23.568-19.072 42.592-42.592 42.592h-170.336c-23.52 0-42.592-19.024-42.592-42.592v-170.336c0-23.52 19.072-42.592 42.592-42.592zM212.944 257.2h-170.368c-23.52 0-42.56-19.024-42.56-42.544v-170.336c0-23.568 19.040-42.592 42.56-42.592h170.368c23.52 0 42.56 19.024 42.56 42.592v170.336c0 23.52-19.040 42.544-42.56 42.544zM596.176 257.2h-170.336c-23.52 0-42.592-19.024-42.592-42.544v-170.336c0-23.568 19.072-42.592 42.592-42.592h170.336c23.536 0 42.592 19.024 42.592 42.592v170.336c0 23.52-19.072 42.544-42.592 42.544zM979.44 257.2h-170.352c-23.52 0-42.544-19.024-42.544-42.544v-170.336c0-23.568 19.024-42.592 42.544-42.592h170.336c23.568 0 42.592 19.024 42.592 42.592v170.336c0.016 23.52-19.008 42.544-42.576 42.544zM170.32 384.992h298.112v-85.2h85.184v85.2h298.064v-85.2h85.168v170.352h-383.232v127.776h-85.184v-127.776h-383.264v-170.352h85.152z" />
<glyph unicode="&#xe605;" glyph-name="advanced" d="M158.832 600.832c47.904 37.2 87.68 11.552 140.72-49.84 6-6.912 14.016 1.184 18.544 5.152 4.544 3.984 74.544 66.928 77.984 69.888 3.392 3.024 7.552 8.624 2.080 14.96s-25.408 32.080-38.144 48.736c-92.816 121.504 254.032 203.824 200.72 205.184-27.088 0.672-135.888 1.952-152.128 0.24-65.92-7.008-148.624-68.544-190.272-97.168-54.416-37.408-74.784-59.216-78.176-62.192-15.392-13.488-2.48-44.56-30.384-69.024-29.52-25.92-47.952-6.336-65.008-21.296-8.512-7.52-32.192-25.248-39.008-31.216-6.832-6-8.032-16.144-1.104-24.192 0 0 64.896-71.712 70.352-77.984 5.456-6.336 20.064-11.696 29.152-3.696 9.12 7.952 32.416 28.448 36.4 31.952 3.984 3.408-2.624 44.256 18.272 60.496zM451.952 574.272c-6.128 7.12-13.744 7.28-20.384 1.456l-73.632-64.272c-5.792-5.056-6.544-14.56-1.376-20.496l425.92-484.688c9.936-11.456 27.216-12.672 38.576-2.688l49.872 41.712c11.328 9.968 12.544 27.424 2.592 38.896l-421.568 490.080zM1019.904 780.592c-3.808 25.376-16.96 20-23.76 9.248-6.8-10.768-37.024-56.528-49.472-77.264-12.336-20.624-42.672-61.168-99.28-21.136-58.992 41.68-38.448 70.768-28.176 90.352 10.32 19.648 41.984 74.736 46.576 81.648 4.576 6.912-0.752 27.072-19.040 18.64-18.336-8.448-129.584-52.672-145.008-116-15.696-64.576 13.2-122.176-43.616-179.456l-68.96-71.92 69.216-80.48 85.008 80.608c20.256 20.384 63.424 40.144 102.576 31.28 83.856-19.008 129.632 12.544 157.152 64.576 24.656 46.56 20.592 144.528 16.784 169.904zM138.56 79.008c-10.688-10.752-10.688-28.224-0.016-38.976l48.848-47.712c10.72-10.784 27.648-6.272 38.32 4.512l252.016 247.76-77.248 87.888-261.92-253.472z" />
<glyph unicode="&#xe606;" glyph-name="attention" horiz-adv-x="985" d="M979.496 65.024c6.827-10.923 6.827-22.528 0-34.816-6.827-10.923-17.067-16.384-30.72-16.384 0 0-913.408 0-913.408 0-12.288 0-21.845 5.461-28.672 16.384-8.192 12.288-8.875 23.893-2.048 34.816 0 0 456.704 800.768 456.704 800.768 5.461 12.288 15.701 18.432 30.72 18.432s25.259-6.144 30.72-18.432c0 0 456.704-800.768 456.704-800.768zM549.416 116.224c0 0 0 102.4 0 102.4s-112.64 0-112.64 0c0 0 0-102.4 0-102.4s112.64 0 112.64 0c0 0 0 0 0 0zM549.416 294.4c0 0 0 307.2 0 307.2s-112.64 0-112.64 0c0 0 0-307.2 0-307.2s112.64 0 112.64 0c0 0 0 0 0 0z" />
<glyph unicode="&#xe607;" glyph-name="device" d="M324.88 173.632l-33.184-101.264c0-7.376 7.312-13.344 16.384-13.344h218.432c9.072 0 16.416 5.968 16.416 13.344l-33.216 101.264h-184.832zM42.848 793.008h745.952v-230.64h45.776v210.064c0 32.928-26.704 59.568-59.584 59.568h-715.392c-32.912 0-59.6-26.64-59.6-59.568v-514.816c0-32.928 26.688-59.6 59.6-59.6h544.048v57.664h-560.8v537.328zM1002.256 533.936h-348.336c-12.064 0-21.792-8.784-21.792-19.616v-435.344c0-10.768 9.728-19.552 21.792-19.552h348.336c12 0 21.744 8.784 21.744 19.552v435.344c0 10.832-9.744 19.616-21.744 19.616zM828.080 73.696c-5.92 0-10.656 4.768-10.656 10.656 0 5.84 4.736 10.656 10.656 10.656 5.872 0 10.656-4.816 10.656-10.656 0-5.888-4.784-10.656-10.656-10.656zM975.024 107.76h-293.968v384.432h293.968v-384.432z" />
<glyph unicode="&#xe608;" glyph-name="download" horiz-adv-x="951" d="M731.382 191.984q0 14.856-10.856 25.713t-25.713 10.856-25.713-10.856-10.856-25.713 10.856-25.713 25.713-10.856 25.713 10.856 10.856 25.713zM877.658 191.984q0 14.856-10.856 25.713t-25.713 10.856-25.713-10.856-10.856-25.713 10.856-25.713 25.713-10.856 25.713 10.856 10.856 25.713zM950.796 319.975v-182.845q0-22.856-15.999-38.855t-38.855-15.999h-841.089q-22.856 0-38.855 15.999t-15.999 38.855v182.845q0 22.856 15.999 38.855t38.855 15.999h265.697l77.138-77.709q33.141-31.998 77.709-31.998t77.709 31.998l77.709 77.709h265.126q22.856 0 38.855-15.999t15.999-38.855zM765.094 645.097q9.714-23.427-7.999-39.997l-255.984-255.984q-10.285-10.856-25.713-10.856t-25.713 10.856l-255.984 255.984q-17.713 16.57-7.999 39.997 9.714 22.284 33.712 22.284h146.276v255.984q0 14.856 10.856 25.713t25.713 10.856h146.276q14.856 0 25.713-10.856t10.856-25.713v-255.984h146.276q23.998 0 33.712-22.284z" />
<glyph unicode="&#xe609;" glyph-name="edit" d="M983.456 800.176l-135.008 135.008c-16.032 15.984-37.264 24.816-59.936 24.816-22.592 0-43.84-8.832-59.856-24.816l-90.96-90.96c-17.728 5.76-38.544 2-52.064-11.584l-38.336-38.336c-15.664-15.664-18.736-39.040-9.52-57.92l-435.888-435.888c-1.216-1.248-2.352-2.608-3.296-4.112-0.208-0.208-0.288-0.496-0.432-0.704-0.928-1.52-1.648-3.040-2.224-4.656-0.064-0.256-0.208-0.416-0.288-0.672l-76.992-234.8-7.296-22.096-9.44-28.672c-0.288-1.072-0.576-2.144-0.784-3.216-2.784-14.592 0-25.088 3.936-32.464 1.36-2.496 2.784-4.576 4.288-6.288 8-9.728 20.384-15.024 34.832-15.024v0c4.576 0 8 0.512 9.072 0.72 0.224 0 0.432 0.080 0.496 0.080h0.064c1.152 0.224 2.288 0.496 3.44 0.864l285.536 93.76c0 0.064 0.064 0.064 0.064 0.064 3.792 1.216 7.296 3.296 10.16 6.16l436.992 436.912c5.664-2.144 11.728-3.424 18.016-3.424 13.52 0 26.256 5.296 35.824 14.88l38.336 38.336c14.656 14.656 18.368 36.144 11.232 54.336l90.032 89.968c33.024 32.992 32.96 86.72 0 119.728zM334.864 103.824l-71.072 71.072 415.616 415.68 71.152-71.152-415.696-415.6zM571.984 698l71.072-71.12-415.6-415.648-71.152 71.104 415.68 415.664zM107.024 19.872l-34.672 34.672 59.056 180.144 155.68-155.744-180.064-59.072zM814.976 541.536c-0.864 1.216-1.28 2.576-2.416 3.648l-214.832 214.832c-2.16 2.144-4.8 3.648-7.44 4.832l30.672 31.456 2.496-2.496 0.080-0.064 218.448-218.464c0.8-0.784 1.856-1.136 2.8-1.824l1.056-1.104-30.864-30.816zM947.12 716.72l-86.96-86.96-182.128 182.144 86.96 86.96c12.592 12.624 34.544 12.592 47.12 0.032l135.008-135.040c13.024-12.976 13.024-34.112 0-47.136zM265.504-22.528h742.688v-41.488h-742.688v41.488z" />
<glyph unicode="&#xe60a;" glyph-name="facebook" horiz-adv-x="480" d="M320 554.496h160v-160h-160v-372.48h-160v372.48h-160v160h160v67.84q0 51.2 16 103.68t44.16 83.2q58.88 65.28 148.48 65.28h111.36v-160h-111.36q-20.48 0-34.56-13.44t-14.080-33.92v-112.64z" />
<glyph unicode="&#xe60b;" glyph-name="help-circled" horiz-adv-x="942" d="M464.896 919.040c129.707 1.365 240.981-43.008 333.824-133.12s140.629-200.021 143.36-329.728c1.365-129.707-43.349-241.323-134.144-334.848s-201.045-141.653-330.752-144.384c-129.707-1.365-241.323 43.349-334.848 134.144s-140.971 201.045-142.336 330.752c-2.731 129.707 41.643 241.323 133.12 334.848s202.069 140.971 331.776 142.336c0 0 0 0 0 0zM462.848 161.28c20.48 0 37.205 6.485 50.176 19.456s19.456 29.013 19.456 48.128c1.365 20.48-4.437 37.205-17.408 50.176s-29.696 19.456-50.176 19.456c0 0-2.048 0-2.048 0-19.115 0-35.157-6.144-48.128-18.432s-20.139-27.989-21.504-47.104c0-20.48 6.485-37.205 19.456-50.176s29.013-20.139 48.128-21.504c0 0 2.048 0 2.048 0s0 0 0 0zM632.832 497.152c17.749 23.211 26.624 49.835 26.624 79.872 0 53.248-18.432 92.843-55.296 118.784-35.499 25.941-81.237 38.912-137.216 38.912-43.691 0-79.189-8.875-106.496-26.624-46.421-28.672-70.997-78.507-73.728-149.504 0 0 0-4.096 0-4.096s112.64 0 112.64 0c0 0 0 4.096 0 4.096 0 17.749 5.461 36.181 16.384 55.296 10.923 16.384 29.355 24.576 55.296 24.576 27.307 0 45.056-6.827 53.248-20.48 10.923-13.653 16.384-28.672 16.384-45.056 0-12.288-5.461-25.941-16.384-40.96-5.461-8.192-12.288-15.019-20.48-20.48 0 0-6.144-4.096-6.144-4.096-4.096-2.731-9.557-6.485-16.384-11.264s-13.653-9.899-20.48-15.36c-6.827-5.461-13.995-11.264-21.504-17.408s-13.312-11.947-17.408-17.408c-9.557-13.653-15.701-40.277-18.432-79.872 0 0 0-8.192 0-8.192s110.592 0 110.592 0c0 0 0 4.096 0 4.096 0 8.192 1.365 17.749 4.096 28.672 4.096 13.653 13.653 25.941 28.672 36.864 0 0 28.672 18.432 28.672 18.432 31.403 23.211 50.517 40.277 57.344 51.2 0 0 0 0 0 0z" />
<glyph unicode="&#xe60c;" glyph-name="internet" d="M511.952 960c-282.304 0-511.952-229.68-511.952-511.984 0-282.256 229.648-511.904 511.952-511.904 282.256 0 511.936 229.664 511.936 511.904 0 282.304-229.68 511.984-511.936 511.984zM575.248 13.504c-13.648-1.968-27.472-3.36-41.456-4.016v195.104h161.648c-27.936-90.16-70.608-159.312-120.192-191.088zM329.568 204.592h160.528v-195.104c-13.52 0.592-26.832 2.016-40.016 3.856-49.68 31.664-92.48 100.896-120.512 191.248zM73.344 426.176h177.888c1.344-63.36 8.624-123.28 20.832-177.872h-151.008c-27.616 53.84-44.544 114.096-47.712 177.872zM450.080 882.72c13.184 1.872 26.496 3.248 40.016 3.888v-198.304h-161.504c28.032 91.904 71.216 162.384 121.488 194.416zM696.448 688.304h-162.656v198.304c13.984-0.672 27.808-2.112 41.456-4.096 50.112-32.096 93.248-102.496 121.2-194.208zM708.24 644.656c12.672-53.648 20.4-112.816 21.872-174.768h-196.32v174.768h174.448zM490.096 644.656v-174.768h-195.184c1.488 61.968 9.216 121.136 21.872 174.768h173.312zM251.232 469.888h-177.888c3.088 62.592 19.44 121.712 46.112 174.768h151.856c-11.744-53.792-18.736-112.656-20.080-174.768zM294.912 426.176h195.184v-177.872h-172.512c-13.12 54.384-21.152 114.688-22.672 177.872zM533.792 248.304v177.872h196.32c-1.536-63.184-9.552-123.488-22.64-177.872h-173.68zM773.824 426.176h176.72c-3.184-63.76-20.080-124.032-47.76-177.872h-149.792c12.192 54.592 19.44 114.512 20.832 177.872zM773.824 469.888c-1.328 62.128-8.368 120.992-20.128 174.768h150.736c26.704-53.056 43.024-112.192 46.112-174.768h-176.72zM879.2 688.304h-136.384c-19.68 69.712-47.776 128.88-81.824 172.8 90.048-32.608 166.48-93.904 218.208-172.8zM364.48 861.632c-34.288-43.968-62.496-103.328-82.224-173.328h-137.584c52.048 79.36 129.024 140.848 219.808 173.328zM146.704 204.592h136.464c19.712-68.576 47.552-126.8 81.312-170.128-89.568 32.064-165.776 92.336-217.776 170.128zM660.992 34.992c33.52 43.216 61.264 101.312 80.896 169.616h135.312c-51.744-77.344-127.344-137.488-216.208-169.616z" />
<glyph unicode="&#xe60d;" glyph-name="internet-thin" d="M942.224 728.080c-7.744 10.96-15.84 21.648-24.464 31.952-93.632 112.32-234.512 183.968-391.792 183.968-0.32 0-0.528-0.016-0.784-0.016-0.16 0-0.272 0.016-0.448 0.016-0.544 0-1.136-0.064-1.728-0.064-156.128-0.896-295.76-72.336-388.816-183.92-8.576-10.32-16.72-20.992-24.48-31.952-58.928-83.168-93.712-184.576-93.712-294.048s34.784-210.928 93.712-294.064c7.76-10.96 15.92-21.648 24.48-31.936 93.040-111.616 232.672-183.008 388.8-183.936 0.592 0 1.184-0.048 1.728-0.048 0.176 0 0.304 0.016 0.448 0.016 0.256 0 0.464-0.016 0.784-0.016 157.28 0 298.16 71.632 391.744 183.952 8.592 10.336 16.752 21.008 24.496 31.968 58.944 83.168 93.712 184.624 93.712 294.080 0.032 109.424-34.752 210.864-93.68 294.048zM376.88 877.664c-46.88-45.216-85.824-111.312-112.672-190.624-35.984 13.424-68.336 29.6-96.256 47.888 54.752 64.992 126.704 115.040 208.928 142.736zM143.424 702.944c31.712-21.184 68.368-39.696 108.896-54.944-17.488-63.904-27.52-134.832-27.904-209.664h-166.48c0.896 98.432 32.576 189.536 85.488 264.608zM59.488 396.464h165.744c2.688-62.656 12.224-122.096 27.056-176.464-40.544-15.232-77.2-33.744-108.864-54.944-46.912 66.576-77.136 145.664-83.936 231.408zM168.096 133.184c27.904 18.256 60.192 34.368 96.080 47.776 26.848-79.312 65.824-145.376 112.704-190.592-82.224 27.696-154.048 77.824-208.784 142.816zM505.024-32.624c-85.856 11.808-159.968 99.872-201.984 226.672 60.576 18.208 129.136 29.152 201.984 30.96v-257.632zM505.024 266.8c-76.816-1.824-149.232-13.728-213.712-33.52-13.216 50.192-21.664 105.184-24.192 163.184h237.92l-0.016-129.664zM505.024 438.336h-238.768c0.384 70.272 9.52 136.672 25.264 196.336 64.4-19.728 136.784-31.616 213.52-33.44l-0.016-162.896zM505.024 643.024c-72.8 1.792-141.344 12.752-201.856 30.912 42 126.784 116.032 214.928 201.856 226.704v-257.616zM993.968 438.336h-168.912c-0.368 74.528-10.336 145.168-27.664 208.816 41.456 15.392 78.864 34.208 111.072 55.76 52.912-75.056 84.592-166.144 85.504-264.576zM883.904 734.896c-28.48-18.656-61.6-35.056-98.368-48.64-27.12 80.4-66.624 147.296-114.256 192.688 83.776-27.44 157.056-78.064 212.624-144.048zM546.88 900.336c84.944-13.12 158.096-101.104 199.664-227.024-59.952-17.76-127.68-28.528-199.664-30.288v257.312zM546.88 601.216c75.856 1.792 147.408 13.424 211.248 32.752 15.664-59.52 24.72-125.648 25.088-195.664h-236.336v162.912zM546.88 396.464h235.504c-2.56-57.744-10.976-112.48-24.032-162.448-63.936 19.344-135.568 30.992-211.408 32.832v129.632h-0.064zM546.88-32.32v257.28c71.968-1.744 139.728-12.496 199.76-30.32-41.616-125.904-114.832-213.792-199.76-226.96zM671.28-10.944c47.632 45.408 87.184 112.24 114.32 192.688 36.752-13.6 69.792-29.968 98.256-48.592-55.6-65.952-128.8-116.624-212.576-144.096zM908.496 165.024c-32.256 21.6-69.664 40.384-111.104 55.808 14.688 54.128 24.144 113.28 26.8 175.632h168.256c-6.816-85.744-36.976-164.864-83.952-231.44z" />
<glyph unicode="&#xe60e;" glyph-name="IPv6" d="M4.016 39.36v799.376h113.424v-799.376h-113.424zM243.6 39.36v799.376h217.664c62.64 0 110.992-5.12 145.008-15.392 34.032-10.256 61.84-28.352 83.456-54.288 28.448-34.208 42.672-80.848 42.672-139.888 0-84.992-28.816-151.6-86.416-199.84s-137.552-72.368-239.808-72.368h-50.24v-317.6h-112.336zM355.936 442.832h45.92c67.328 0 119.36 15.488 156.080 46.448 36.736 30.976 55.088 74.896 55.088 131.792 0 47.536-14.496 81.552-43.472 102.080-29.008 20.528-76.976 30.784-143.952 30.784h-69.68v-311.104zM876.944 545.488h95.232c-32.304-28.224-62.96-58.752-91.984-91.584s-58.336-70.272-87.904-112.336c10.32 4.080 20.88 7.12 31.744 9.152 10.848 2.048 21.824 3.056 32.976 3.056 46.384 0 84.992-15.744 115.776-47.216 30.784-31.488 46.192-70.96 46.192-118.432 0-51.824-16.144-93.952-48.416-126.368-32.304-32.416-74.224-48.64-125.76-48.64-54 0-97.136 16.544-129.44 49.664-32.288 33.104-48.416 77.328-48.416 132.688 0 52.352 16.96 106.848 50.88 163.408 33.888 56.576 86.928 118.784 159.12 186.608zM844.784 77.84c30.944 0 55.152 9.696 72.656 29.088 17.504 19.408 26.256 46.208 26.256 80.384 0 31.744-8.976 56.912-26.88 75.504-17.904 18.576-42.592 27.872-74.064 27.872-30.672 0-55.088-9.632-73.264-28.896s-27.264-44.928-27.264-76.928c0-32.56 9.216-58.544 27.664-77.952 18.448-19.36 43.408-29.072 74.896-29.072zM514.288 55.2l-68.096 175.76h25.184l45.68-127.68c3.68-10.24 6.736-19.824 9.232-28.784 2.72 9.6 5.872 19.184 9.488 28.784l47.472 127.68h23.744l-68.848-175.76h-23.856z" />
<glyph unicode="&#xe60f;" glyph-name="lang" d="M510.864 960c-281.728 0-510.864-229.136-510.864-510.816 0-281.696 229.136-510.896 510.864-510.896 281.68 0 510.816 229.2 510.816 510.896-0.016 281.68-229.136 510.816-510.816 510.816zM510.864 10.928c-128.256 0-243.84 55.44-324 143.584 3.28 9.616 25.232 72.928 39.776 102.032 15.776 31.552 21.024 35.024 56.080 66.592 35.040 31.552-70.096 45.536-94.64 70.064-24.528 24.544-36.784 24.544-64.816 46.752-20.976 16.64-33.12-57.024-37.92-95.184-8.24 33.472-12.672 68.416-12.672 104.416 0 92.992 29.2 179.2 78.832 250.24-14-43.296-26.496-106.368 27.808-87.232 59.616 21.072 64.864 45.568 64.864 45.568l35.008 61.344c0 0 5.28-85.824 12.304-98.096 6.992-12.272 35.024-47.344 45.568 1.744 19.296 90.16 22.576 115.632 55.84 115.632 33.296 0 101.824 26.32 108.896-54.304 6.992-80.608-7.056-33.312-50.896-54.336-43.744-21.008-54.288-94.592-14-103.376 40.336-8.768 131.44-45.568 131.44-45.568l45.584-50.832 14.032-54.32c0 0 8.736-61.28 8.736-66.576 0-5.232 0-56.080 0-56.080s1.776-110.384 42.080-84.112c40.304 26.32 150.672 198.032 127.904 262.864-22.8 64.816-24.544 71.872 17.488 94.624 42.032 22.784 71.84 50.816 70.128 82.368-1.232 22.112 1.008 35.616 1.264 50.096 34.080-62.288 53.504-133.76 53.504-209.664-0.048-241.616-196.608-438.24-438.192-438.24z" />
<glyph unicode="&#xe610;" glyph-name="lock" horiz-adv-x="658" d="M182.845 521.105h292.553v109.707q0 60.568-42.854 103.422t-103.422 42.854-103.422-42.854-42.854-103.422v-109.707zM658.244 466.252v-329.122q0-22.856-15.999-38.855t-38.855-15.999h-548.536q-22.856 0-38.855 15.999t-15.999 38.855v329.122q0 22.856 15.999 38.855t38.855 15.999h18.285v109.707q0 105.136 75.424 180.56t180.56 75.424 180.56-75.424 75.424-180.56v-109.707h18.285q22.856 0 38.855-15.999t15.999-38.855z" />
<glyph unicode="&#xe611;" glyph-name="minus-circled" d="M0 448.033q0 211.986 149.99 361.977t361.977 149.99 361.977-149.99 149.99-361.977-149.99-361.977-361.977-149.99-361.977 149.99-149.99 361.977zM217.986 364.038h587.962v167.989h-587.962v-167.989z" />
<glyph unicode="&#xe612;" glyph-name="netSpeed" d="M35.28 388l69.744-17.28 52.496 82.416-99.776 24.72c-24.976 6.224-50.176-8.928-56.352-33.744-6.208-24.832 8.944-49.92 33.888-56.112zM945.328 374.656l-228.256-205.472-268.4 207.728c-5.12 3.968-11.008 6.816-17.296 8.336l-35.776 8.864-52.496-82.384 56.272-13.952 291.424-225.536c8.432-6.48 18.48-9.712 28.528-9.712 11.2 0 22.384 4.032 31.2 11.968l257.184 231.488c19.040 17.152 20.528 46.448 3.296 65.424-17.216 18.928-46.608 20.432-65.68 3.248zM444.208 600.336l250-160.048c21.088-13.504 49.12-7.904 63.376 12.592l257.216 370.464c14.576 21.024 9.28 49.872-11.808 64.416-21.152 14.56-50.112 9.28-64.736-11.76l-231.616-333.6-251.536 161.008c-10.384 6.672-23.040 8.896-35.136 6.288-12.064-2.64-22.624-10.016-29.264-20.432l-383.44-601.968c-13.776-21.6-7.344-50.192 14.336-63.904 7.712-4.864 16.336-7.2 24.864-7.2 15.376 0 30.448 7.6 39.312 21.52l358.432 562.624z" />
<glyph unicode="&#xe613;" glyph-name="plus-circled" d="M0 448.033q0 211.986 149.99 361.977t361.977 149.99 361.977-149.99 149.99-361.977-149.99-361.977-361.977-149.99-361.977 149.99-149.99 361.977zM223.986 366.038h205.987v-205.987h163.99v205.987h205.987v163.99h-205.987v205.987h-163.99v-205.987h-205.987v-163.99z" />
<glyph unicode="&#xe614;" glyph-name="refresh" horiz-adv-x="963" d="M417.792 867.84c114.688 0 212.651-39.595 293.888-118.784s123.221-175.445 125.952-288.768c0 0 124.928 0 124.928 0s-188.416-210.944-188.416-210.944c0 0-188.416 210.944-188.416 210.944s147.456 0 147.456 0c-2.731 84.651-34.816 156.331-96.256 215.040s-134.485 88.064-219.136 88.064c-86.016 0-159.744-30.72-221.184-92.16s-92.16-135.851-92.16-223.232c0-86.016 30.72-159.744 92.16-221.184s135.168-92.16 221.184-92.16c70.997 0 133.12 20.48 186.368 61.44 0 0 71.68-77.824 71.68-77.824-75.093-60.075-161.109-90.112-258.048-90.112-114.688 0-212.992 40.96-294.912 122.88s-122.88 180.907-122.88 296.96c0 116.053 40.96 215.040 122.88 296.96s180.224 122.88 294.912 122.88c0 0 0 0 0 0z" />
<glyph unicode="&#xe615;" glyph-name="router" d="M0 21.344c0-47.104 38.16-85.328 85.264-85.328h852.848c47.072 0 85.232 38.224 85.232 85.328v234.496c0 47.072-38.16 85.232-85.232 85.232h-255.872v223.936c0 29.392-23.856 53.28-53.312 53.28-29.44 0-53.28-23.888-53.28-53.28v-223.936h-490.384c-47.104 0-85.264-38.144-85.264-85.232v-234.496zM106.608 138.544c0 29.392 23.872 53.28 53.296 53.28 29.44 0 53.312-23.888 53.312-53.28 0-29.376-23.872-53.296-53.312-53.296-29.424 0-53.296 23.92-53.296 53.296v0zM298.496 138.544c0 29.392 23.888 53.28 53.296 53.28 29.424 0 53.312-23.888 53.312-53.28 0-29.376-23.888-53.296-53.312-53.296-29.408 0-53.296 23.92-53.296 53.296v0zM628.928 788.832c-123.632 0-223.824-100.192-223.824-223.808 0-29.44 23.872-53.328 53.312-53.328 29.424 0 53.328 23.888 53.328 53.328 0 64.752 52.4 117.232 117.184 117.232 64.864 0 117.296-52.48 117.296-117.232 0-29.44 23.856-53.328 53.28-53.328 29.488 0 53.344 23.888 53.344 53.328 0 123.616-100.272 223.808-223.92 223.808v0zM628.928 959.44c-217.824 0-394.432-176.592-394.432-394.416 0-29.44 23.904-53.328 53.328-53.328 29.44 0 53.312 23.888 53.312 53.328 0 159.024 128.768 287.776 287.792 287.776 159.056 0 287.808-128.752 287.808-287.776 0-29.44 23.888-53.328 53.344-53.328 29.424 0 53.264 23.888 53.264 53.328 0 217.824-176.464 394.416-394.416 394.416v0z" />
<glyph unicode="&#xe616;" glyph-name="router-thin" d="M980.912-64.016h-932.912c-26.464 0-48 21.536-48 48v239.968c0 26.464 21.536 48 48 48h932.912c26.464 0 48-21.536 48-48v-239.968c0-26.464-21.536-48-48-48zM48 239.952c-8.816 0-16-7.168-16-16v-239.968c0-8.832 7.184-16 16-16h932.912c8.832 0 16 7.168 16 16v239.968c0 8.832-7.168 16-16 16h-932.912zM652.464 505.424h32v-249.472h-32v249.472zM404.192 702.304l-23.040 22.208c155.328 161.168 412.832 165.92 574.016 10.656l-22.192-23.040c-148.528 143.024-385.712 138.64-528.784-9.824zM508.368 592.432l-23.040 22.208c46.384 48.128 108.688 75.312 175.456 76.544 66.8 1.056 130.048-23.648 178.192-70.032l-22.224-23.040c-41.968 40.48-96.672 61.904-155.392 61.088-58.208-1.088-112.528-24.8-152.992-66.768zM132.256 134.832h61.664v-61.664h-61.664v61.664zM229.024 134.832h61.664v-61.664h-61.664v61.664zM327.952 134.832h61.664v-61.664h-61.664v61.664z" />
<glyph unicode="&#xe617;" glyph-name="system" d="M982.4 131.52v-24.464c0-10.096-8.176-18.256-18.256-18.256h-12.64c-10.080 0-24.8-21.44-28.8-28.8-3.84-7.52-1.28-19.36 5.92-26.56l8.96-8.96c7.040-7.2 7.040-18.72 0-25.92l-17.28-17.12c-7.024-7.2-18.72-7.2-25.744 0l-8.96 8.96c-7.184 7.024-32.464 2.544-40.64 0-8.16-2.56-14.72-12.976-14.72-23.040v-12.64c0-10.080-8.32-18.24-18.384-18.24h-24.336c-10.080 0-18.384 8.16-18.384 18.24v12.64c0 10.080-21.28 24.96-28.64 28.8-7.536 3.84-19.536 1.28-26.576-5.76l-8.96-8.96c-7.184-7.2-18.72-7.2-25.904 0l-17.28 17.28c-7.040 7.040-7.040 18.56 0 25.76l9.104 8.96c7.040 7.2 2.56 32.48 0 40.64-2.72 8-12.96 14.72-23.024 14.72h-12.656c-10.080 0-18.4 8.336-18.4 18.256v24.464c0 9.92 8.336 18.256 18.4 18.256h12.64c10.080 0 24.96 21.44 28.8 28.8 3.84 7.52 1.28 19.36-5.76 26.56l-8.96 8.96c-7.2 7.040-7.2 18.72 0 25.92l17.12 17.12c7.184 7.184 18.72 7.184 25.904 0l8.976-8.976c7.2-7.024 32.48-2.72 40.64 0 8.16 2.56 14.72 12.976 14.72 22.896v12.8c0 10.080 8.32 18.24 18.24 18.24h24.336c10.080 0 18.384-8.16 18.384-18.24v-12.8c0-9.92 21.28-24.816 28.816-28.64 7.52-4 19.36-1.28 26.544 5.744l8.976 8.976c7.024 7.184 18.72 7.184 25.744 0l17.28-17.28c7.040-7.040 7.040-18.72 0-25.76l-8.96-8.96c-7.2-7.2-2.72-32.48 0-40.64 2.56-8 12.96-14.72 23.040-14.72h12.464c10.096-0.016 18.256-8.336 18.256-18.256zM860.64 119.36c0 33.6-27.2 60.8-60.8 60.8-33.76 0-61.12-27.2-61.12-60.8 0-33.76 27.36-61.12 61.12-61.12 33.6 0 60.8 27.36 60.8 61.12zM763.2 618.72v-48.64c0-20.16-16.48-36.64-36.64-36.64h-25.28c-20 0.16-49.76-42.72-57.6-57.6-7.84-15.040-2.56-38.88 11.664-52.976l17.92-18.080c14.24-14.080 14.24-37.44 0-51.664l-34.4-34.4c-14.24-14.24-37.6-14.24-51.664 0l-17.92 17.92c-14.24 14.24-64.96 5.28-81.28 0.16-16.32-5.28-29.6-25.92-29.6-46.080v-25.28c0-20-16.32-36.48-36.48-36.48h-48.8c-20.16 0-36.48 16.48-36.48 36.48v25.28c0 20.16-42.88 49.92-57.76 57.6-14.88 7.84-38.72 2.56-52.96-11.664l-17.92-17.936c-14.24-14.24-37.44-14.24-51.68 0l-34.56 34.56c-14.24 14.24-14.24 37.44 0 51.664l17.92 17.92c14.24 14.24 5.44 64.8 0.16 81.12-5.12 16.32-25.92 29.6-46.080 29.6h-25.12c-20.16 0.016-36.64 16.496-36.64 36.496v48.8c0 20 16.48 36.48 36.64 36.48h25.12c20.16 0 49.92 42.88 57.76 57.76s2.56 38.72-11.68 52.96l-17.92 17.92c-14.24 14.24-14.24 37.44 0 51.68l34.4 34.56c14.24 14.24 37.6 14.24 51.68 0l18.080-18.080c14.080-14.080 64.8-5.28 80.96 0 16.32 5.12 29.6 25.92 29.6 46.080v25.12c0 20.16 16.48 36.64 36.64 36.64h48.8c20 0 36.48-16.48 36.48-36.64v-25.12c0-20.16 42.72-49.92 57.76-57.76 14.88-7.68 38.72-2.4 52.96 11.68l17.92 17.92c14.080 14.24 37.44 14.24 51.664 0l34.4-34.4c14.24-14.24 14.24-37.44 0-51.68l-17.92-17.92c-14.24-14.24-5.28-64.96-0.16-81.12 5.28-16.32 26.080-29.6 46.080-29.6h25.28c20.176 0 36.656-16.48 36.656-36.64zM556 594.4c0 87.52-70.88 158.4-158.4 158.4s-158.56-70.88-158.56-158.4c0-87.36 71.040-158.4 158.56-158.4s158.4 71.040 158.4 158.4z" />
<glyph unicode="&#xe618;" glyph-name="toggle-off" horiz-adv-x="1170" d="M658.244 447.967q0 59.425-23.141 113.421t-62.567 93.423-93.423 62.567-113.421 23.141-113.421-23.141-93.423-62.567-62.567-93.423-23.141-113.421 23.141-113.421 62.567-93.423 93.423-62.567 113.421-23.141 113.421 23.141 93.423 62.567 62.567 93.423 23.141 113.421zM1097.073 447.967q0 59.425-23.141 113.421t-62.567 93.423-93.423 62.567-113.421 23.141h-220.557q67.996-51.425 107.707-127.992t39.712-164.561-39.712-164.561-107.707-127.992h220.557q59.425 0 113.421 23.141t93.423 62.567 62.567 93.423 23.141 113.421zM1170.211 447.967q0-74.281-29.141-141.991t-77.995-116.564-116.564-77.995-141.991-29.141h-438.829q-74.281 0-141.991 29.141t-116.564 77.995-77.995 116.564-29.141 141.991 29.141 141.991 77.995 116.564 116.564 77.995 141.991 29.141h438.829q74.281 0 141.991-29.141t116.564-77.995 77.995-116.564 29.141-141.991z" />
<glyph unicode="&#xe619;" glyph-name="toggle-on" horiz-adv-x="1170" d="M0 447.967q0 74.281 29.141 141.991t77.995 116.564 116.564 77.995 141.991 29.141h438.829q74.281 0 141.991-29.141t116.564-77.995 77.995-116.564 29.141-141.991-29.141-141.991-77.995-116.564-116.564-77.995-141.991-29.141h-438.829q-74.281 0-141.991 29.141t-116.564 77.995-77.995 116.564-29.141 141.991zM804.52 155.415q59.425 0 113.421 23.141t93.423 62.567 62.567 93.423 23.141 113.421-23.141 113.421-62.567 93.423-93.423 62.567-113.421 23.141-113.421-23.141-93.423-62.567-62.567-93.423-23.141-113.421 23.141-113.421 62.567-93.423 93.423-62.567 113.421-23.141z" />
<glyph unicode="&#xe61a;" glyph-name="twitter" horiz-adv-x="961" d="M467.2 641.28q0 81.92 58.24 138.88t140.16 56.96q87.040 0 142.080-60.16 61.44 12.8 125.44 46.080-20.48-69.12-85.76-108.8 55.040 7.68 112.64 32-39.68-60.16-98.56-103.68v-24.32q0-139.52-61.44-261.12-61.44-124.16-194.56-211.2t-303.36-87.040q-166.4 0-302.080 88.32 20.48-2.56 48.64-2.56 136.96 0 243.2 83.2-66.56 1.28-115.84 40.96t-67.2 97.28q12.8-5.12 35.84-5.12t51.2 6.4q-66.56 14.080-111.36 67.84t-44.8 128q37.12-20.48 88.32-24.32-88.32 61.44-88.32 165.12 0 48.64 26.88 97.28 161.28-195.84 407.040-203.52-6.4 21.76-6.4 43.52z" />
<glyph unicode="&#xe61b;" glyph-name="upload" horiz-adv-x="951" d="M731.382 118.845q0 14.856-10.856 25.713t-25.713 10.856-25.713-10.856-10.856-25.713 10.856-25.713 25.713-10.856 25.713 10.856 10.856 25.713zM877.658 118.845q0 14.856-10.856 25.713t-25.713 10.856-25.713-10.856-10.856-25.713 10.856-25.713 25.713-10.856 25.713 10.856 10.856 25.713zM950.796 246.837v-182.845q0-22.856-15.999-38.855t-38.855-15.999h-841.089q-22.856 0-38.855 15.999t-15.999 38.855v182.845q0 22.856 15.999 38.855t38.855 15.999h243.984q11.999-31.998 40.283-52.568t63.139-20.57h146.276q34.855 0 63.139 20.57t40.283 52.568h243.984q22.856 0 38.855-15.999t15.999-38.855zM765.094 617.099q-9.714-22.856-33.712-22.856h-146.276v-255.984q0-14.856-10.856-25.713t-25.713-10.856h-146.276q-14.856 0-25.713 10.856t-10.856 25.713v255.984h-146.276q-23.998 0-33.712 22.856-9.714 22.284 7.999 39.426l255.984 255.984q10.285 10.856 25.713 10.856t25.713-10.856l255.984-255.984q17.713-17.142 7.999-39.426z" />
<glyph unicode="&#xe61c;" glyph-name="user" horiz-adv-x="805" d="M804.52 157.129q0-68.567-41.712-108.279t-110.85-39.712h-499.397q-69.138 0-110.85 39.712t-41.712 108.279q0 30.284 2 59.139t7.999 62.282 15.142 61.996 24.57 55.711 35.426 46.283 48.854 30.569 63.71 11.428q5.143 0 23.998-12.285t42.569-27.427 61.71-27.427 76.281-12.285 76.281 12.285 61.71 27.427 42.569 27.427 23.998 12.285q34.855 0 63.71-11.428t48.854-30.569 35.426-46.283 24.57-55.711 15.142-61.996 7.999-62.282 2-59.139zM621.674 667.382q0-90.851-64.282-155.133t-155.133-64.282-155.133 64.282-64.282 155.133 64.282 155.133 155.133 64.282 155.133-64.282 64.282-155.133z" />
<glyph unicode="&#xe61d;" glyph-name="users" horiz-adv-x="1097" d="M338.835 447.967q-92.566-2.857-151.419-73.138h-76.567q-46.854 0-78.852 23.141t-31.998 67.71q0 201.701 70.853 201.701 3.428 0 24.856-11.999t55.711-24.284 67.996-12.285q38.283 0 75.995 13.142-2.857-21.142-2.857-37.712 0-79.423 46.283-146.276zM950.796 83.991q0-68.567-41.712-108.279t-110.85-39.712h-499.397q-69.138 0-110.85 39.712t-41.712 108.279q0 30.284 2 59.139t7.999 62.282 15.142 61.996 24.57 55.711 35.426 46.283 48.854 30.569 63.71 11.428q5.714 0 24.57-12.285t41.712-27.427 61.139-27.427 77.138-12.285 77.138 12.285 61.139 27.427 41.712 27.427 24.57 12.285q34.855 0 63.71-11.428t48.854-30.569 35.426-46.283 24.57-55.711 15.142-61.996 7.999-62.282 2-59.139zM365.691 813.658q0-60.568-42.854-103.422t-103.422-42.854-103.422 42.854-42.854 103.422 42.854 103.422 103.422 42.854 103.422-42.854 42.854-103.422zM767.951 594.244q0-90.851-64.282-155.133t-155.133-64.282-155.133 64.282-64.282 155.133 64.282 155.133 155.133 64.282 155.133-64.282 64.282-155.133zM1097.073 465.68q0-44.569-31.998-67.71t-78.852-23.141h-76.567q-58.853 70.281-151.419 73.138 46.283 66.853 46.283 146.276 0 16.57-2.857 37.712 37.712-13.142 75.995-13.142 33.712 0 67.996 12.285t55.711 24.284 24.856 11.999q70.853 0 70.853-201.701zM1023.934 813.658q0-60.568-42.854-103.422t-103.422-42.854-103.422 42.854-42.854 103.422 42.854 103.422 103.422 42.854 103.422-42.854 42.854-103.422z" />
<glyph unicode="&#xe61e;" glyph-name="wechat" d="M308.739 840.765c-285.082-50.918-380.109-373.005-153.347-520.43 12.434-7.992 12.434-7.107-6.218-62.761l-15.985-47.66 114.862 61.573 30.492-7.401c31.969-7.992 72.824-13.617 100.058-13.617h16.284l-5.627 21.612c-44.7 164.595 109.829 327.711 310.838 327.711h27.236l-5.624 19.538c-44.111 154.235-230.316 253.998-412.969 221.435zM283.871 696.596c30.195-20.429 31.972-64.538 2.959-83.484-47.068-30.787-102.131 23.388-70.456 69.571 13.914 20.721 47.368 27.53 67.497 13.914zM526.62 696.596c49.733-33.454 12.434-110.717-43.223-89.403-40.259 15.393-44.997 70.751-7.401 90.586 14.802 7.992 37.893 7.401 50.624-1.183zM636.449 574.628c-141.21-25.754-239.196-132.918-233.572-256.069 7.401-164.892 200.712-278.569 386.324-227.651l21.906 5.921 46.182-24.868c25.459-13.914 46.774-23.98 47.365-22.794 0.594 1.48-4.439 19.241-10.952 39.667-14.802 45.591-15.099 42.335 4.736 56.543 223.209 160.156 27.236 481.649-261.99 429.251zM630.825 441.71c12.431-8.289 18.944-29.012 13.617-44.111-11.249-32.266-59.502-34.634-72.53-3.551-14.802 35.82 26.053 68.977 58.913 47.662zM828.575 438.157c19.538-18.65 16.282-50.327-6.513-62.167-34.931-17.761-71.639 17.761-53.581 51.807 11.84 21.906 42.332 27.233 60.093 10.36z" />
<glyph unicode="&#xe61f;" glyph-name="weibo" d="M671.751 823.59c-29.546-12.926-36.318-43.701-14.773-65.246 10.465-10.465 20.313-12.312 63.399-12.312 60.324 0 100.949-16.002 131.727-51.705 37.547-42.472 41.858-55.398 41.858-132.956 0-68.939 0-70.171 16.002-79.404 36.932-20.927 61.556 4.925 70.171 73.865 11.080 89.87-42.472 194.512-123.105 242.524-52.937 30.775-143.421 43.087-185.279 25.235zM368.906 709.1c-68.943-24.62-135.421-72.018-206.821-148.343-169.274-179.739-158.194-350.86 28.314-441.958 193.894-94.792 454.885-63.399 597.074 72.018 106.489 100.949 93.563 227.751-27.699 270.838-21.545 7.386-28.317 12.926-25.238 19.698 11.080 27.081 14.773 58.474 8.619 76.94-19.084 58.477-88.637 72.018-192.048 36.932l-41.243-14.155 3.693 41.24c4.311 48.626-6.154 75.097-35.086 89.87-24.006 12.312-70.171 11.080-109.565-3.079zM540.027 470.886c91.713-25.238 147.729-80.637 147.729-146.497 0-73.25-65.249-139.114-171.121-174.199-56.631-18.466-161.888-22.159-213.593-8.001-97.871 27.699-153.269 81.865-153.269 151.422 0 38.164 16.62 71.404 52.937 105.257 33.853 32.007 59.706 47.398 109.565 64.017 75.097 25.235 155.733 28.314 227.751 8.001zM346.129 411.18c-62.167-28.931-95.406-73.25-95.406-128.649 0-50.476 22.159-84.944 70.786-110.797 37.547-20.313 106.489-18.466 148.347 3.075 53.552 28.317 88.637 80.637 88.637 131.727-0.618 41.858-37.55 91.716-81.251 109.565-35.086 14.773-94.181 12.312-131.113-4.922zM391.066 295.458c4.308-4.308 7.386-14.773 7.386-24.006 0-30.778-51.705-56.016-72.636-35.086-11.694 11.694-8.615 40.625 4.925 54.166 13.541 13.544 48.626 16.62 60.324 4.925zM682.216 697.405c-28.317-28.317-9.233-62.17 35.7-62.17 38.779 0 56.013-19.698 56.013-64.017 0-27.699 2.464-35.7 13.544-43.087 33.239-23.392 60.324 2.461 60.324 57.245 0 67.092-48.015 117.569-116.34 122.494-30.775 2.461-38.161 0.614-49.241-10.465z" />
<glyph unicode="&#xe621;" glyph-name="wireless" d="M294.96 301.664l68.944-68.88c37.168 39.408 89.792 64.16 148.224 64.16 58.496 0 111.072-24.752 148.256-64.16l68.976 68.88c-54.912 57.168-131.872 92.96-217.216 92.96-85.296 0-162.304-35.776-217.184-92.96zM512.128 190.816c-29.088 0-54.976-13.088-72.912-33.408l72.928-72.88 72.928 72.88c-17.952 20.304-43.808 33.408-72.944 33.408zM1020.096 601.056c-280.544 280.56-735.376 280.544-1015.92 0-1.44-1.408-2.768-2.944-4.176-4.384l70.768-70.784c112.208 114.432 268.432 185.488 441.376 185.488 172.896 0 329.136-71.056 441.376-185.488l70.752 70.784c-1.424 1.44-2.736 2.976-4.176 4.384zM512.144 605.2c-136.784 0-265.36-53.264-362.096-150-1.44-1.408-2.752-2.944-4.192-4.416l73.808-73.776c74.064 76.336 177.696 123.792 292.464 123.792 114.784 0 218.384-47.472 292.512-123.792l73.744 73.776c-1.408 1.472-2.752 3.008-4.16 4.416-96.704 96.736-225.312 150-362.080 150z" />
</font>
</defs>
</svg>
